<svg width="18" height="14" viewBox="0 0 18 14" fill="none" xmlns="http://www.w3.org/2000/svg">
<path d="M15.8906 0.390625H2.10938C0.946266 0.390625 0 1.33689 0 2.5V11.5C0 12.6631 0.946266 13.6094 2.10938 13.6094H15.8906C17.0537 13.6094 18 12.6631 18 11.5V2.5C18 1.33689 17.0537 0.390625 15.8906 0.390625ZM16.5938 11.5C16.5938 11.8877 16.2783 12.2031 15.8906 12.2031H2.10938C1.72167 12.2031 1.40625 11.8877 1.40625 11.5V2.5C1.40625 2.1123 1.72167 1.79688 2.10938 1.79688H15.8906C16.2783 1.79688 16.5938 2.1123 16.5938 2.5V11.5Z" fill="white"/>
</svg>
