<svg fill="#000000" xmlns="http://www.w3.org/2000/svg"  viewBox="0 0 30 30" width="30px" height="30px"><path d="M 15 6 C 6.729 6 0 12.729 0 21 C 0 21.338 0.02878125 21.668 0.05078125 22 L 2.0507812 22 C 2.0247812 21.669 2 21.338 2 21 C 2 13.832 7.832 8 15 8 C 22.168 8 28 13.832 28 21 C 28 21.338 27.975219 21.669 27.949219 22 L 29.949219 22 C 29.971219 21.668 30 21.338 30 21 C 30 12.729 23.271 6 15 6 z M 4.5175781 18 L 4.5175781 22 L 6.5664062 22 L 6.5664062 20.552734 L 7.9472656 21.789062 L 9.2402344 20.552734 L 9.2402344 22 L 11.279297 22 L 11.279297 18 L 9.3183594 18 L 7.9042969 19.515625 L 6.578125 18 L 4.5175781 18 z M 14.166016 18 L 11.503906 22 L 13.775391 22 L 14.097656 21.599609 L 16.337891 21.599609 L 16.705078 22 L 18.978516 22 L 16.371094 18 L 14.166016 18 z M 19.15625 18 L 19.15625 22 L 21.296875 22 L 21.296875 20.261719 L 23.802734 22 L 25.886719 22 L 25.886719 18 L 23.925781 18 L 23.925781 19.794922 L 21.140625 18 L 19.15625 18 z M 15.201172 19.693359 L 15.648438 20.539062 L 14.789062 20.539062 L 15.201172 19.693359 z"/></svg>